<svg width="540" height="1100" viewBox="0 0 540 1100" fill="none" xmlns="http://www.w3.org/2000/svg">
  <g stroke="#191919" stroke-width="6" stroke-linecap="round" stroke-linejoin="round">
    <path d="M273 34C329 30 376 63 392 112C406 154 401 194 395 225C386 266 389 305 411 344C441 398 468 448 477 512C484 563 476 615 471 670C466 729 474 808 495 884C507 929 513 978 511 1038C510 1060 496 1075 472 1076C439 1077 417 1049 402 1018C381 974 368 927 343 886C323 853 299 821 274 791C262 777 250 763 241 746C229 724 228 698 234 672C243 633 267 596 283 561C302 518 307 464 301 416C295 364 275 316 258 269C244 229 231 181 234 138C237 94 247 55 273 34Z" fill="#F7F7F5"/>
    <path d="M250 42C207 62 179 95 170 138C163 170 166 205 174 237C187 289 207 338 217 390C228 447 225 503 203 555C180 610 142 657 113 708C82 761 61 818 42 873C27 917 15 960 7 1005C2 1034 17 1062 45 1070C83 1081 111 1051 137 1015C171 968 211 926 253 890C287 860 318 824 334 781C349 740 349 692 341 649C331 597 314 550 302 499C291 450 282 403 276 355C269 302 271 249 279 196C287 141 300 86 286 47" fill="#F7F7F5"/>
    <path d="M303 43C335 48 360 71 372 105C384 139 381 177 375 208C369 241 368 278 389 309C420 355 448 399 455 454C460 500 451 546 439 594C427 641 422 687 431 735C443 803 468 866 487 935C495 965 495 993 483 1017C472 1039 449 1053 425 1045C395 1035 377 998 364 968C345 925 333 879 310 840C287 801 255 767 228 735C214 718 201 699 193 678C184 654 184 629 191 604C204 555 234 513 247 466C261 415 260 365 248 315C237 270 219 228 205 184C194 149 190 109 207 78C225 47 262 31 303 43Z" fill="#F7F7F5"/>
    <path d="M305 36C355 38 405 76 414 130C420 167 411 204 400 238C391 267 390 294 403 322C423 363 457 389 492 407C511 417 523 439 516 459C509 479 487 493 464 493C425 492 392 469 359 447C332 430 304 414 273 401C241 388 209 384 181 398C159 409 140 426 126 446C113 465 99 489 77 498C50 509 18 495 8 470C-2 445 9 415 29 397C55 374 92 364 124 355C157 346 188 334 213 310C232 292 245 268 251 241C258 208 254 173 250 139C245 104 251 66 275 44C283 37 294 35 305 36Z" fill="#F7F7F5"/>
    <path d="M299 62C334 66 359 97 363 132C366 160 358 189 343 212C325 239 296 257 267 258C234 259 208 241 196 212C183 181 186 144 197 113C209 81 233 58 266 57C277 56 288 57 299 62Z" fill="#F7F7F5"/>
    <path d="M266 57C241 74 236 110 243 139C251 170 251 203 247 236C244 266 235 295 219 321C198 354 165 377 128 389"/>
    <path d="M306 62C312 97 309 133 302 168C293 211 287 254 288 298C289 347 299 394 308 442C316 486 321 531 319 576C318 624 310 674 294 719C278 764 253 806 224 846C190 893 148 934 110 973C91 992 70 1012 46 1024"/>
    <path d="M277 78C296 111 301 149 302 187C303 223 302 261 310 296C320 340 341 381 365 419C385 451 408 481 431 508"/>
    <path d="M255 149C222 169 203 199 198 236C191 290 206 342 219 394C229 434 234 475 231 516C227 560 214 602 191 640C171 675 146 708 124 742C96 786 74 834 58 884"/>
    <path d="M273 188C249 219 246 260 254 298C262 334 278 367 291 401C306 440 318 483 322 526C326 573 320 622 307 669C295 713 277 754 267 797"/>
    <path d="M288 190C315 216 337 245 352 279C366 311 376 345 392 376C407 404 430 428 457 440"/>
    <path d="M235 342C202 355 175 379 157 408C139 437 127 470 111 500C93 534 68 566 39 589"/>
    <path d="M320 352C349 373 370 402 385 435C399 465 405 498 411 531C420 577 429 622 429 669"/>
    <path d="M225 503C198 531 181 567 174 606C166 650 169 695 177 739C185 783 196 826 195 871"/>
    <path d="M301 510C320 546 334 584 342 624C351 671 355 718 367 764C379 813 400 858 426 901"/>
    <path d="M243 791C219 806 195 820 174 839C140 870 112 907 92 947"/>
    <path d="M286 793C310 814 329 840 344 868C362 901 373 937 391 970"/>
    <path d="M262 91C246 85 227 85 213 92C197 100 187 117 186 135C184 153 192 170 205 181C218 192 236 196 253 193"/>
    <path d="M286 90C302 82 322 80 338 87C354 95 365 110 367 127C370 145 364 163 351 176C338 189 320 195 303 194"/>
    <path d="M232 114C240 104 252 98 265 98C278 98 290 103 299 113"/>
    <path d="M225 136C234 127 247 121 260 121"/>
    <path d="M307 121C320 120 333 124 343 133"/>
    <path d="M224 160C237 167 252 170 267 169"/>
    <path d="M301 169C316 170 330 167 343 160"/>
    <path d="M255 210C280 208 305 207 329 206"/>
    <path d="M254 246C278 245 302 244 326 243"/>
    <path d="M247 282C270 282 293 282 316 281"/>
    <path d="M241 317C262 320 284 320 305 318"/>
    <path d="M197 406C220 423 241 444 257 469"/>
    <path d="M362 427C336 438 314 453 296 474"/>
    <path d="M180 706C196 727 205 751 207 777"/>
    <path d="M353 763C368 779 377 798 384 819"/>
  </g>
</svg>
