<svg width="247" height="793" viewBox="0 0 247 793" fill="none" xmlns="http://www.w3.org/2000/svg">
<mask id="path-1-inside-1_2209_12" fill="white">
<path d="M84 189H164V793H84V189Z"/>
</mask>
<g filter="url(#filter0_i_2209_12)">
<path d="M84 189H164V793H84V189Z" fill="#EDEDED"/>
</g>
<path d="M164 189H160V793H164H168V189H164ZM84 793H88V189H84H80V793H84Z" fill="#A7A7A7" mask="url(#path-1-inside-1_2209_12)"/>
<g filter="url(#filter1_d_2209_12)">
<rect x="57" y="189" width="73" height="134" transform="rotate(-90 57 189)" fill="#EBEBEB"/>
<rect x="59" y="187" width="69" height="130" transform="rotate(-90 59 187)" stroke="#BCBCBC" stroke-width="4"/>
</g>
<rect x="2" y="2" width="58" height="271" fill="#F7F7F7" stroke="#BFBFBF" stroke-width="4"/>
<rect x="95" y="2" width="59" height="271" fill="#F7F7F7" stroke="#BFBFBF" stroke-width="4"/>
<rect x="187" y="2" width="58" height="271" fill="#F7F7F7" stroke="#BFBFBF" stroke-width="4"/>
<path d="M29 275C29 292.936 41.2458 309.001 97.5 314" stroke="#7B7B7B" stroke-width="8"/>
<path d="M160.275 310.687C163.001 291.5 216.666 291.462 216.5 275" stroke="#7B7B7B" stroke-width="8"/>
<path d="M124.499 274.959C124.5 275.5 127.499 309.5 127.499 310.959" stroke="#7B7B7B" stroke-width="11"/>
<rect x="71" y="312" width="112" height="177" fill="#F9F9F9" stroke="#BEBEBE" stroke-width="4"/>
<defs>
<filter id="filter0_i_2209_12" x="84" y="189" width="80" height="626.6" filterUnits="userSpaceOnUse" color-interpolation-filters="sRGB">
<feFlood flood-opacity="0" result="BackgroundImageFix"/>
<feBlend mode="normal" in="SourceGraphic" in2="BackgroundImageFix" result="shape"/>
<feColorMatrix in="SourceAlpha" type="matrix" values="0 0 0 0 0 0 0 0 0 0 0 0 0 0 0 0 0 0 127 0" result="hardAlpha"/>
<feOffset dy="23"/>
<feGaussianBlur stdDeviation="11.3"/>
<feComposite in2="hardAlpha" operator="arithmetic" k2="-1" k3="1"/>
<feColorMatrix type="matrix" values="0 0 0 0 0 0 0 0 0 0 0 0 0 0 0 0 0 0 0.25 0"/>
<feBlend mode="normal" in2="shape" result="effect1_innerShadow_2209_12"/>
</filter>
<filter id="filter1_d_2209_12" x="57" y="116" width="134" height="73" filterUnits="userSpaceOnUse" color-interpolation-filters="sRGB">
<feFlood flood-opacity="0" result="BackgroundImageFix"/>
<feColorMatrix in="SourceAlpha" type="matrix" values="0 0 0 0 0 0 0 0 0 0 0 0 0 0 0 0 0 0 127 0" result="hardAlpha"/>
<feMorphology radius="12" operator="erode" in="SourceAlpha" result="effect1_dropShadow_2209_12"/>
<feOffset/>
<feGaussianBlur stdDeviation="2.1"/>
<feComposite in2="hardAlpha" operator="out"/>
<feColorMatrix type="matrix" values="0 0 0 0 0 0 0 0 0 0 0 0 0 0 0 0 0 0 0.25 0"/>
<feBlend mode="normal" in2="BackgroundImageFix" result="effect1_dropShadow_2209_12"/>
<feBlend mode="normal" in="SourceGraphic" in2="effect1_dropShadow_2209_12" result="shape"/>
</filter>
</defs>
</svg>
