<svg width="1024" height="1024" viewBox="0 0 1024 1024" fill="none" xmlns="http://www.w3.org/2000/svg">
<path d="M140 129.5C149.333 132.833 154 138 154 145L159 335.5V397C159 408.333 154.167 414 144.5 414H138C132 410 129 405.333 129 400V342L124.5 144C124.5 135.667 129.667 130.833 140 129.5ZM272.996 180C288.663 180 299.496 196.667 305.496 230V232C305.496 239.667 300.329 244.167 289.996 245.5C281.663 245.5 275.996 235.167 272.996 214.5L270.996 213H264.996C257.663 223.667 253.996 237.667 253.996 255L255.496 280C268.829 280 283.329 276.5 298.996 269.5C305.329 269.5 311.163 274 316.496 283C316.496 296.667 297.829 305.667 260.496 310L274.996 481.5C256.663 488.167 242.663 491.5 232.996 491.5C223.663 491.5 218.996 488 218.996 481C218.996 477.333 220.163 473 222.496 468C227.163 470.667 231.163 472 234.496 472C244.496 472 249.496 460.167 249.496 436.5C249.496 417.5 246.329 391 239.996 357L230.496 314.5L197.996 319.5C190.996 319.5 186.829 314.333 185.496 304C185.496 294 198.996 287.667 225.996 285L223.996 254C229.329 204.667 245.663 180 272.996 180ZM331.062 359.8C332.262 354.8 335.862 352.3 341.862 352.3C347.862 352.3 350.862 365.1 350.862 390.7L351.762 406.9L349.062 501.4C347.662 507.6 344.562 510.7 339.762 510.7C333.962 508.5 331.062 505.4 331.062 501.4L334.062 408.7L331.062 359.8ZM443.844 267.5L534.344 261.5C542.677 261.5 547.51 266.667 548.844 277C548.844 287.333 533.177 292.5 501.844 292.5C478.844 295.833 458.51 297.5 440.844 297.5C419.177 294.833 408.344 288.667 408.344 279C408.344 272.333 412.844 267 421.844 263L440.844 267.5H443.844ZM672.816 180C688.483 180 699.316 196.667 705.316 230V232C705.316 239.667 700.15 244.167 689.816 245.5C681.483 245.5 675.816 235.167 672.816 214.5L670.816 213H664.816C657.483 223.667 653.816 237.667 653.816 255L655.316 280C668.65 280 683.15 276.5 698.816 269.5C705.15 269.5 710.983 274 716.316 283C716.316 296.667 697.65 305.667 660.316 310L674.816 481.5C656.483 488.167 642.483 491.5 632.816 491.5C623.483 491.5 618.816 488 618.816 481C618.816 477.333 619.983 473 622.316 468C626.983 470.667 630.983 472 634.316 472C644.316 472 649.316 460.167 649.316 436.5C649.316 417.5 646.15 391 639.816 357L630.316 314.5L597.816 319.5C590.816 319.5 586.65 314.333 585.316 304C585.316 294 598.816 287.667 625.816 285L623.816 254C629.15 204.667 645.483 180 672.816 180ZM776.182 343C791.582 343 800.582 353.9 803.182 375.7C803.182 395.9 787.382 435 755.782 493V494.8C763.982 494.8 781.482 487.6 808.282 473.2H808.882C812.882 473.2 815.982 476.1 818.182 481.9C818.182 492.1 790.682 504.6 735.682 519.4C732.482 519.4 729.782 516.5 727.582 510.7C735.382 492.9 750.582 462.9 773.182 420.7C780.782 400.3 784.582 386.5 784.582 379.3V370C784.582 366 782.482 362.9 778.282 360.7H774.382C766.582 360.7 759.082 370.1 751.882 388.9L752.782 392.5C752.782 396.3 749.982 399.4 744.382 401.8C736.982 400.4 733.282 396.7 733.282 390.7C733.282 379.3 741.982 365.3 759.382 348.7C764.382 344.9 769.982 343 776.182 343ZM874.895 129.5C884.228 132.833 888.895 138 888.895 145L893.895 335.5V397C893.895 408.333 889.061 414 879.395 414H872.895C866.895 410 863.895 405.333 863.895 400V342L859.395 144C859.395 135.667 864.561 130.833 874.895 129.5ZM159.5 698L183 704.5L245.5 699.5C256.833 701.5 262.5 707.333 262.5 717C262.5 722.333 259 726.5 252 729.5L184.5 734C161.5 734 148 726.667 144 712C147.333 702.667 152.5 698 159.5 698ZM181.5 745L259.5 737C264.167 738.667 267.333 741.333 269 745V751.5C269 762.5 257 768 233 768C223.667 771 207 773.833 183 776.5C156 776.5 142.5 769.167 142.5 754.5C142.5 750.167 145.667 746 152 742H155L172 745H181.5ZM377.977 580C393.643 580 404.477 596.667 410.477 630V632C410.477 639.667 405.31 644.167 394.977 645.5C386.643 645.5 380.977 635.167 377.977 614.5L375.977 613H369.977C362.643 623.667 358.977 637.667 358.977 655L360.477 680C373.81 680 388.31 676.5 403.977 669.5C410.31 669.5 416.143 674 421.477 683C421.477 696.667 402.81 705.667 365.477 710L379.977 881.5C361.643 888.167 347.643 891.5 337.977 891.5C328.643 891.5 323.977 888 323.977 881C323.977 877.333 325.143 873 327.477 868C332.143 870.667 336.143 872 339.477 872C349.477 872 354.477 860.167 354.477 836.5C354.477 817.5 351.31 791 344.977 757L335.477 714.5L302.977 719.5C295.977 719.5 291.81 714.333 290.477 704C290.477 694 303.977 687.667 330.977 685L328.977 654C334.31 604.667 350.643 580 377.977 580ZM433.342 762.5C443.742 762.5 450.442 782.9 453.442 823.7L455.242 833C464.442 814.2 471.942 804.8 477.742 804.8C477.742 804 479.842 803.4 484.042 803H485.242C498.442 803 506.842 813.3 510.442 833.9V834.8C510.442 852.4 501.642 871.8 484.042 893C476.642 901 468.542 905 459.742 905C449.742 902.8 444.742 897.8 444.742 890L429.742 782.3L425.242 771.2C425.242 767.6 427.942 764.7 433.342 762.5ZM464.542 884.3H465.442C475.842 880.1 484.942 865.8 492.742 841.4V830C490.942 823.8 488.642 820.7 485.842 820.7H483.442C474.642 825.9 468.342 847.1 464.542 884.3ZM561.571 797.3C569.571 797.5 583.071 811.5 602.071 839.3L602.671 844.4C602.671 850 588.971 854.3 561.571 857.3L560.671 858.2V859.4C564.871 877.4 569.271 886.4 573.871 886.4H577.471C583.871 886.4 593.571 879.5 606.571 865.7H608.371C612.371 865.7 615.471 868.6 617.671 874.4C617.671 879.2 609.271 887.5 592.471 899.3C588.071 901.9 582.771 903.8 576.571 905C560.371 905 549.071 889.8 542.671 859.4C533.471 858 528.871 854.2 528.871 848C528.871 843.6 532.271 840.7 539.071 839.3V840.5L542.071 839.3V831.8C542.071 808.8 548.571 797.3 561.571 797.3ZM563.371 818.9H560.671L559.471 830V839.3H560.671C571.871 838.9 577.471 837.7 577.471 835.7C572.271 827.9 567.571 822.3 563.371 818.9ZM694.3 789.2C703.1 789.2 707.5 792.7 707.5 799.7L704.8 805.4L703 860.3C703 885.1 708 900.5 718 906.5L718.6 911C718 916.8 715.3 919.7 710.5 919.7H708.7C693.7 909.5 686.2 893.9 686.2 872.9H684.1C676.1 895.3 666.4 906.5 655 906.5C644.4 903.5 639.1 895.6 639.1 882.8C639.1 854.6 650.4 826.5 673 798.5C680.6 792.3 687.7 789.2 694.3 789.2ZM658 870.8L656.8 879.2V884.9H659.8C674.8 847.5 682.3 824.7 682.3 816.5H681.1C669.5 829.5 661.8 847.6 658 870.8ZM770.198 722.9C775.798 724.1 778.598 726.9 778.598 731.3L776.798 744.5V748.4C776.798 757.2 777.798 766.5 779.798 776.3H780.398C803.598 769.3 817.998 765.8 823.598 765.8C829.398 767.4 832.298 770.3 832.298 774.5C832.298 781.3 825.398 784.7 811.598 784.7L780.398 795.8C780.398 822.8 783.298 859.5 789.098 905.9C787.898 911.3 784.998 914 780.398 914H779.798C772.798 914 769.298 905 769.298 887C766.698 873.6 764.498 844.5 762.698 799.7H757.298C738.498 798.5 729.098 794.1 729.098 786.5C729.098 784.3 731.198 781.6 735.398 778.4H738.398L752.198 782H761.798L759.098 744.5C759.098 730.1 762.798 722.9 770.198 722.9Z" fill="white"/>
</svg>
