<svg width="106" height="704" viewBox="0 0 106 704" fill="none" xmlns="http://www.w3.org/2000/svg">
<mask id="path-1-inside-1_2435_52" fill="white">
<path d="M80 42H25V704H80V42Z"/>
</mask>
<g filter="url(#filter0_i_2435_52)">
<path d="M80 42H25V704H80V42Z" fill="#EDEDED"/>
</g>
<path d="M25 42H29V704H25H21V42H25ZM80 704H76V42H80H84V704H80Z" fill="#A7A7A7" mask="url(#path-1-inside-1_2435_52)"/>
<path d="M60.0542 227.195C62.1317 229.306 43.498 350.27 49.3228 355.972" stroke="#7B7B7B" stroke-width="11"/>
<rect x="-2" y="2" width="78" height="160" transform="matrix(-1 0 0 1 90 344)" fill="#F9F9F9" stroke="#BEBEBE" stroke-width="4"/>
<rect x="-2" y="2" width="102" height="223" transform="matrix(-1 0 0 1 102 0)" fill="#F9F9F9" stroke="#BEBEBE" stroke-width="4"/>
<defs>
<filter id="filter0_i_2435_52" x="25" y="42" width="55" height="684.6" filterUnits="userSpaceOnUse" color-interpolation-filters="sRGB">
<feFlood flood-opacity="0" result="BackgroundImageFix"/>
<feBlend mode="normal" in="SourceGraphic" in2="BackgroundImageFix" result="shape"/>
<feColorMatrix in="SourceAlpha" type="matrix" values="0 0 0 0 0 0 0 0 0 0 0 0 0 0 0 0 0 0 127 0" result="hardAlpha"/>
<feOffset dy="23"/>
<feGaussianBlur stdDeviation="11.3"/>
<feComposite in2="hardAlpha" operator="arithmetic" k2="-1" k3="1"/>
<feColorMatrix type="matrix" values="0 0 0 0 0 0 0 0 0 0 0 0 0 0 0 0 0 0 0.25 0"/>
<feBlend mode="normal" in2="shape" result="effect1_innerShadow_2435_52"/>
</filter>
</defs>
</svg>
