<svg width="1024" height="1024" viewBox="0 0 1024 1024" fill="none" xmlns="http://www.w3.org/2000/svg">
<rect width="1024" height="1024" fill="white"/>
<path d="M187.2 329V130.6H215.2L218.8 160.6H220.8C226.133 151 234.533 142.867 246 136.2C257.467 129.267 270.667 125.8 285.6 125.8C309.867 125.8 328 133 340 147.4C352.267 161.8 358.4 182.6 358.4 209.8V329H324.8V213.8C324.8 196.2 320.933 182.467 313.2 172.6C305.467 162.467 293.467 157.4 277.2 157.4C261.467 157.4 248.133 162.867 237.2 173.8C226.267 184.467 220.8 199.933 220.8 220.2V329H187.2Z" fill="#111111"/>
<path d="M734.888 333.8C719.154 333.8 706.088 331 695.688 325.4C685.288 319.8 677.554 312.467 672.488 303.4C667.421 294.067 664.888 283.933 664.888 273C664.888 252.733 672.221 237.4 686.888 227C701.821 216.333 721.688 211 746.488 211H800.888V207C800.888 172.333 785.021 155 753.288 155C740.488 155 729.688 157.8 720.888 163.4C712.354 169 706.888 177.8 704.488 189.8H670.088C671.421 176.467 675.821 165 683.288 155.4C691.021 145.8 700.888 138.467 712.888 133.4C724.888 128.333 738.354 125.8 753.288 125.8C781.554 125.8 802.088 133.267 814.888 148.2C827.954 162.867 834.488 182.467 834.488 207V329H805.688L802.888 298.2H800.088C794.221 307.8 786.354 316.2 776.488 323.4C766.888 330.333 753.021 333.8 734.888 333.8ZM740.888 304.2C753.688 304.2 764.488 301.133 773.288 295C782.354 288.867 789.154 280.733 793.688 270.6C798.488 260.467 800.888 249.4 800.888 237.4H749.287C731.154 237.4 718.354 240.467 710.888 246.6C703.688 252.733 700.088 260.867 700.088 271C700.088 281.4 703.554 289.533 710.488 295.4C717.421 301.267 727.554 304.2 740.888 304.2ZM183.2 938V651.6H210.4L214.4 684.4H216.8C221.867 673.733 230 664.8 241.2 657.6C252.4 650.4 265.6 646.8 280.8 646.8C296.8 646.8 311.2 650.8 324 658.8C337.067 666.8 347.333 678.667 354.8 694.4C362.267 709.867 366 728.8 366 751.2C366 773.333 362.133 792.133 354.4 807.6C346.933 823.067 336.533 834.8 323.2 842.8C310.133 850.8 295.067 854.8 278 854.8C262.8 854.8 249.867 851.6 239.2 845.2C228.8 838.533 221.333 830.8 216.8 822V938H183.2ZM274 822.8C290.8 822.8 304.667 816.933 315.6 805.2C326.533 793.2 332 775.067 332 750.8C332 726.533 326.533 708.533 315.6 696.8C304.667 684.8 290.8 678.8 274 678.8C257.2 678.8 243.333 684.8 232.4 696.8C221.467 708.533 216 726.533 216 750.8C216 775.067 221.467 793.2 232.4 805.2C243.333 816.933 257.2 822.8 274 822.8ZM772.488 850C754.354 850 740.088 845.6 729.688 836.8C719.288 828 714.088 812.133 714.088 789.2V680.4H663.688V651.6H693.688C707.288 651.6 715.154 644.933 717.288 631.6L722.888 600.8H747.688V651.6H826.888V680.4H747.688V789.2C747.688 800.4 750.221 808.267 755.288 812.8C760.621 817.333 769.688 819.6 782.488 819.6H826.888V850H772.488Z" fill="#686868"/>
</svg>
