<svg width="1024" height="1024" viewBox="0 0 1024 1024" fill="none" xmlns="http://www.w3.org/2000/svg">
<rect width="1024" height="1024" fill="white"/>
<path d="M300 759V263H370L379 338H384C397.333 314 418.333 293.667 447 277C475.667 259.667 508.667 251 546 251C606.667 251 652 269 682 305C712.667 341 728 393 728 461V759H644V471C644 427 634.333 392.667 615 368C595.667 342.667 565.667 330 525 330C485.667 330 452.333 343.667 425 371C397.667 397.667 384 436.333 384 487V759H300Z" fill="#111111"/>
</svg>
